<?xml version="1.0" encoding="UTF-8"?> <!-- Generator: Adobe Illustrator 17.0.0, SVG Export Plug-In . SVG Version: 6.00 Build 0) --> <svg xmlns="http://www.w3.org/2000/svg" xmlns:xlink="http://www.w3.org/1999/xlink" id="Layer_1" x="0px" y="0px" width="25.156px" height="25.156px" viewBox="0 0 25.156 25.156" xml:space="preserve"> <g> <g> <path fill="#00f" d="M18.208,0.013H6.948c-3.824,0-6.936,3.111-6.936,6.935v11.261c0,3.823,3.111,6.935,6.936,6.935h11.26 c3.824,0,6.936-3.112,6.936-6.935V6.948C25.144,3.124,22.032,0.013,18.208,0.013z M22.913,18.208c0,2.594-2.109,4.704-4.705,4.704 H6.948c-2.594,0-4.705-2.11-4.705-4.704V6.948c0-2.594,2.111-4.705,4.705-4.705h11.26c2.596,0,4.705,2.111,4.705,4.705V18.208 L22.913,18.208z"></path> <path fill="#00f" d="M12.577,6.102c-3.568,0-6.473,2.906-6.473,6.476c0,3.57,2.904,6.475,6.473,6.475 c3.572,0,6.477-2.905,6.477-6.475C19.054,9.008,16.149,6.102,12.577,6.102z M12.577,16.823c-2.34,0-4.244-1.903-4.244-4.245 c0-2.341,1.904-4.246,4.244-4.246c2.342,0,4.248,1.904,4.248,4.246C16.825,14.92,14.919,16.823,12.577,16.823z"></path> <path fill="#00f" d="M19.327,4.212c-0.432,0-0.854,0.173-1.156,0.479c-0.305,0.303-0.48,0.725-0.48,1.156 c0,0.43,0.176,0.852,0.48,1.157c0.303,0.304,0.725,0.479,1.156,0.479c0.428,0,0.85-0.175,1.154-0.479 c0.307-0.305,0.479-0.727,0.479-1.157c0-0.431-0.172-0.853-0.479-1.156C20.179,4.385,19.755,4.212,19.327,4.212z"></path> </g> </g> <g id="XMLID_496_"> <g> <path id="XMLID_9_" fill="#00f" d="M82.52-51.76l5.9,2.204l2.287,7.346c0.143,0.471,0.721,0.645,1.101,0.333l3.289-2.682 c0.346-0.281,0.838-0.295,1.197-0.034l5.936,4.308c0.406,0.297,0.984,0.073,1.088-0.421l4.346-20.908 c0.111-0.54-0.416-0.99-0.93-0.791l-24.223,9.344C81.914-52.831,81.918-51.984,82.52-51.76z M90.336-50.729l11.535-7.104 c0.207-0.128,0.422,0.153,0.242,0.318l-9.52,8.85c-0.336,0.311-0.549,0.728-0.611,1.181l-0.324,2.403 c-0.043,0.32-0.494,0.352-0.582,0.042l-1.248-4.383C89.686-49.923,89.895-50.458,90.336-50.729z"></path> </g> </g> <g> <g> <g> <path fill="#00f" d="M139.135-62.767h-5.367c-5.625,0-10.199,4.515-10.199,10.064v4.775c0,4.132,2.574,7.846,6.439,9.358 v3.096c0,0.208,0.127,0.399,0.32,0.483c0.068,0.032,0.145,0.046,0.219,0.046c0.131,0,0.258-0.047,0.357-0.137l3.113-2.782h5.117 c5.621,0,10.195-4.516,10.195-10.064v-4.775C149.33-58.252,144.756-62.767,139.135-62.767z M147.227-47.928 c0,4.964-3.063,7.974-8.092,7.974h-5.324c-0.133,0-0.26,0.049-0.361,0.138l-1.979,2.187l-0.391-2.338 c0-0.224-0.143-0.424-0.355-0.499c-3.639-1.271-5.055-3.653-5.055-7.462v-4.775c0-4.965,3.064-7.975,8.096-7.975h5.367 c5.031,0,8.094,3.01,8.094,7.975V-47.928L147.227-47.928z M141.912-48.139l-2.689-1.648c-0.293-0.181-0.643-0.242-0.986-0.174 c-0.344,0.068-0.639,0.259-0.83,0.538l-0.127,0.184c-1.162-0.362-2.447-0.827-3.215-2.923l0.318-0.261 c0.547-0.447,0.605-1.231,0.131-1.747l-2.104-2.282c-0.158-0.172-0.434-0.19-0.617-0.042l-1.32,1.083 c-1.16,0.95-0.619,2.355-0.441,2.816c0.01,0.02,0.018,0.04,0.029,0.06c0.045,0.077,1.143,1.924,2.914,3.625 c1.781,1.709,4.988,3.286,5.09,3.332c0.365,0.224,0.779,0.333,1.188,0.333c0.715,0,1.418-0.331,1.838-0.939l0.953-1.383 C142.176-47.761,142.115-48.017,141.912-48.139z M139.043-51.495c0.066,0.233,0.283,0.386,0.516,0.386 c0.047,0,0.096-0.006,0.148-0.019c0.283-0.08,0.447-0.373,0.369-0.654c-0.324-1.141-1.246-2.052-2.402-2.376 c-0.285-0.08-0.582,0.083-0.664,0.365c-0.08,0.281,0.086,0.574,0.369,0.654C138.18-52.915,138.818-52.286,139.043-51.495z M137.611-56.282c-0.283-0.081-0.582,0.083-0.662,0.365c-0.082,0.281,0.084,0.573,0.369,0.653 c1.889,0.531,3.391,2.019,3.924,3.884c0.066,0.232,0.279,0.385,0.516,0.385c0.049,0,0.098-0.006,0.148-0.019 c0.283-0.08,0.451-0.373,0.369-0.655C141.645-53.884,139.857-55.652,137.611-56.282z M137.381-58.75 c-0.285-0.081-0.582,0.083-0.666,0.365c-0.078,0.281,0.086,0.574,0.371,0.654c3.199,0.897,5.746,3.419,6.648,6.579 c0.066,0.232,0.283,0.387,0.516,0.387c0.049,0,0.098-0.006,0.146-0.02c0.285-0.079,0.451-0.374,0.371-0.655 C143.764-54.95,140.934-57.751,137.381-58.75z"></path> </g> </g> </g> <g> <g> <path id="WhatsApp_8_" fill="#00f" d="M191.354-49.932c0,7.03-5.742,12.729-12.83,12.729c-2.248,0-4.361-0.575-6.199-1.583 l-7.104,2.257l2.316-6.831c-1.17-1.918-1.842-4.167-1.842-6.572c0-7.031,5.744-12.73,12.828-12.73 C185.611-62.662,191.354-56.963,191.354-49.932z M178.523-60.634c-5.945,0-10.785,4.801-10.785,10.703 c0,2.341,0.764,4.51,2.055,6.275l-1.348,3.974L172.59-41c1.705,1.118,3.744,1.771,5.936,1.771c5.945,0,10.785-4.801,10.785-10.702 C189.311-55.833,184.473-60.634,178.523-60.634z M185.002-47c-0.078-0.13-0.289-0.209-0.602-0.365 c-0.316-0.156-1.861-0.911-2.15-1.015c-0.289-0.104-0.498-0.157-0.707,0.156s-0.813,1.015-0.996,1.224 c-0.182,0.208-0.365,0.234-0.68,0.078c-0.314-0.156-1.328-0.486-2.529-1.548c-0.936-0.827-1.566-1.848-1.75-2.161 c-0.184-0.312-0.02-0.48,0.139-0.636c0.141-0.14,0.314-0.365,0.471-0.546c0.158-0.183,0.211-0.312,0.314-0.521 c0.105-0.208,0.053-0.39-0.027-0.547c-0.076-0.156-0.707-1.69-0.969-2.315c-0.262-0.625-0.523-0.521-0.707-0.521 c-0.184,0-0.393-0.026-0.604-0.026c-0.209,0-0.551,0.079-0.838,0.391c-0.289,0.313-1.1,1.067-1.1,2.602 c0,1.536,1.125,3.019,1.285,3.227c0.156,0.208,2.174,3.461,5.371,4.71c3.197,1.249,3.197,0.832,3.773,0.781 c0.574-0.053,1.859-0.756,2.121-1.484C185.08-46.246,185.08-46.87,185.002-47z"></path> </g> </g> </svg> 