<?xml version="1.0" encoding="UTF-8"?> <!-- Generator: Adobe Illustrator 17.0.0, SVG Export Plug-In . SVG Version: 6.00 Build 0) --> <svg xmlns="http://www.w3.org/2000/svg" xmlns:xlink="http://www.w3.org/1999/xlink" id="Layer_1" x="0px" y="0px" width="25.613px" height="25.156px" viewBox="0 0 25.613 25.156" xml:space="preserve"> <g id="XMLID_496_"> <g> <path id="XMLID_9_" fill="#00f" d="M0.454,12.12l5.9,2.204l2.287,7.346c0.143,0.471,0.721,0.645,1.101,0.333l3.289-2.682 c0.346-0.281,0.838-0.295,1.197-0.034l5.936,4.308c0.406,0.297,0.984,0.073,1.088-0.421l4.346-20.908 c0.111-0.54-0.416-0.99-0.93-0.791L0.446,10.819C-0.152,11.05-0.148,11.896,0.454,12.12z M8.27,13.151l11.535-7.104 c0.207-0.128,0.422,0.153,0.242,0.318l-9.519,8.85c-0.336,0.311-0.549,0.728-0.611,1.181l-0.324,2.403 c-0.043,0.32-0.494,0.352-0.582,0.042l-1.248-4.383C7.62,13.957,7.829,13.423,8.27,13.151z"></path> </g> </g> <g> <g> <g> <path fill="#00f" d="M139.363-62.767h-5.367c-5.625,0-10.199,4.515-10.199,10.064v4.775c0,4.132,2.574,7.846,6.439,9.358 v3.096c0,0.208,0.127,0.399,0.32,0.483c0.068,0.032,0.145,0.046,0.219,0.046c0.131,0,0.258-0.047,0.357-0.137l3.113-2.782h5.117 c5.621,0,10.195-4.516,10.195-10.064v-4.775C149.559-58.252,144.984-62.767,139.363-62.767z M147.455-47.928 c0,4.964-3.063,7.974-8.092,7.974h-5.324c-0.133,0-0.26,0.049-0.361,0.138l-1.979,2.187l-0.391-2.338 c0-0.224-0.143-0.424-0.355-0.499c-3.639-1.271-5.055-3.653-5.055-7.462v-4.775c0-4.965,3.064-7.975,8.096-7.975h5.367 c5.031,0,8.094,3.01,8.094,7.975V-47.928L147.455-47.928z M142.141-48.139l-2.689-1.648c-0.293-0.181-0.643-0.242-0.986-0.174 c-0.344,0.068-0.639,0.259-0.83,0.538l-0.127,0.184c-1.162-0.362-2.447-0.827-3.215-2.923l0.318-0.261 c0.547-0.447,0.605-1.231,0.131-1.747l-2.104-2.282c-0.158-0.172-0.434-0.19-0.617-0.042l-1.32,1.083 c-1.16,0.95-0.619,2.355-0.441,2.816c0.01,0.02,0.018,0.04,0.029,0.06c0.045,0.077,1.143,1.924,2.914,3.625 c1.781,1.709,4.988,3.286,5.09,3.332c0.365,0.224,0.779,0.333,1.188,0.333c0.715,0,1.418-0.331,1.838-0.939l0.953-1.383 C142.404-47.761,142.344-48.017,142.141-48.139z M139.271-51.495c0.066,0.233,0.283,0.386,0.516,0.386 c0.047,0,0.096-0.006,0.148-0.019c0.283-0.08,0.447-0.373,0.369-0.654c-0.324-1.141-1.246-2.052-2.402-2.376 c-0.285-0.08-0.582,0.083-0.664,0.365c-0.08,0.281,0.086,0.574,0.369,0.654C138.408-52.915,139.047-52.286,139.271-51.495z M137.84-56.282c-0.283-0.081-0.582,0.083-0.662,0.365c-0.082,0.281,0.084,0.573,0.369,0.653 c1.889,0.531,3.391,2.019,3.924,3.884c0.066,0.232,0.279,0.385,0.516,0.385c0.049,0,0.098-0.006,0.148-0.019 c0.283-0.08,0.451-0.373,0.369-0.655C141.873-53.884,140.086-55.652,137.84-56.282z M137.609-58.75 c-0.285-0.081-0.582,0.083-0.666,0.365c-0.078,0.281,0.086,0.574,0.371,0.654c3.199,0.897,5.746,3.419,6.648,6.579 c0.066,0.232,0.283,0.387,0.516,0.387c0.049,0,0.098-0.006,0.146-0.02c0.285-0.079,0.451-0.374,0.371-0.655 C143.992-54.95,141.162-57.751,137.609-58.75z"></path> </g> </g> </g> <g> <g> <path id="WhatsApp_8_" fill="#00f" d="M191.582-49.932c0,7.03-5.742,12.729-12.83,12.729c-2.248,0-4.361-0.575-6.199-1.583 l-7.104,2.257l2.316-6.831c-1.17-1.918-1.842-4.167-1.842-6.572c0-7.031,5.744-12.73,12.828-12.73 C185.84-62.662,191.582-56.963,191.582-49.932z M178.752-60.634c-5.945,0-10.785,4.801-10.785,10.703 c0,2.341,0.764,4.51,2.055,6.275l-1.348,3.974L172.818-41c1.705,1.118,3.744,1.771,5.936,1.771 c5.945,0,10.785-4.801,10.785-10.702C189.539-55.833,184.701-60.634,178.752-60.634z M185.23-47 c-0.078-0.13-0.289-0.209-0.602-0.365c-0.316-0.156-1.861-0.911-2.15-1.015c-0.289-0.104-0.498-0.157-0.707,0.156 s-0.813,1.015-0.996,1.224c-0.182,0.208-0.365,0.234-0.68,0.078c-0.314-0.156-1.328-0.486-2.529-1.548 c-0.936-0.827-1.566-1.848-1.75-2.161c-0.184-0.312-0.02-0.48,0.139-0.636c0.141-0.14,0.314-0.365,0.471-0.546 c0.158-0.183,0.211-0.312,0.314-0.521c0.105-0.208,0.053-0.39-0.027-0.547c-0.076-0.156-0.707-1.69-0.969-2.315 c-0.262-0.625-0.523-0.521-0.707-0.521c-0.184,0-0.393-0.026-0.604-0.026c-0.209,0-0.551,0.079-0.838,0.391 c-0.289,0.313-1.1,1.067-1.1,2.602c0,1.536,1.125,3.019,1.285,3.227c0.156,0.208,2.174,3.461,5.371,4.71 c3.197,1.249,3.197,0.832,3.773,0.781c0.574-0.053,1.859-0.756,2.121-1.484C185.309-46.246,185.309-46.87,185.23-47z"></path> </g> </g> </svg> 