<?xml version="1.0" encoding="UTF-8"?> <!-- Generator: Adobe Illustrator 17.0.0, SVG Export Plug-In . SVG Version: 6.00 Build 0) --> <svg xmlns="http://www.w3.org/2000/svg" xmlns:xlink="http://www.w3.org/1999/xlink" id="Layer_1" x="0px" y="0px" width="25.687px" height="27.822px" viewBox="0 0 25.687 27.822" xml:space="preserve"> <g> <g> <g> <path fill="#fff" d="M15.566,0h-5.367C4.574,0,0,4.515,0,10.064v4.775c0,4.132,2.574,7.846,6.439,9.358v3.096 c0,0.208,0.127,0.399,0.32,0.483c0.068,0.032,0.145,0.046,0.219,0.046c0.131,0,0.258-0.047,0.357-0.137l3.113-2.782h5.117 c5.621,0,10.195-4.516,10.195-10.064v-4.775C25.762,4.515,21.188,0,15.566,0z M23.658,14.839c0,4.964-3.063,7.974-8.092,7.974 h-5.324c-0.133,0-0.26,0.049-0.361,0.138l-1.979,2.187l-0.391-2.338c0-0.224-0.143-0.424-0.355-0.499 c-3.639-1.271-5.055-3.653-5.055-7.462v-4.775c0-4.965,3.064-7.975,8.096-7.975h5.367c5.031,0,8.094,3.01,8.094,7.975V14.839 L23.658,14.839z M18.344,14.628l-2.689-1.649c-0.293-0.181-0.643-0.242-0.986-0.174c-0.344,0.068-0.639,0.259-0.83,0.538 l-0.127,0.184c-1.162-0.362-2.447-0.827-3.215-2.923l0.318-0.261c0.547-0.447,0.605-1.231,0.131-1.747L8.842,6.314 c-0.158-0.172-0.434-0.19-0.617-0.042l-1.32,1.083c-1.16,0.95-0.619,2.355-0.441,2.816c0.01,0.02,0.018,0.04,0.029,0.06 c0.045,0.077,1.143,1.924,2.914,3.625c1.781,1.709,4.988,3.286,5.09,3.332c0.365,0.224,0.779,0.333,1.188,0.333 c0.715,0,1.418-0.331,1.838-0.94l0.953-1.383C18.607,15.006,18.547,14.75,18.344,14.628z M15.475,11.272 c0.066,0.233,0.283,0.386,0.516,0.386c0.047,0,0.096-0.006,0.149-0.019c0.283-0.08,0.447-0.373,0.369-0.654 c-0.324-1.141-1.246-2.052-2.402-2.376c-0.285-0.08-0.582,0.083-0.664,0.365c-0.08,0.281,0.086,0.574,0.369,0.654 C14.611,9.852,15.25,10.481,15.475,11.272z M14.043,6.485c-0.283-0.082-0.582,0.083-0.662,0.365 c-0.082,0.281,0.084,0.573,0.369,0.653c1.889,0.531,3.391,2.019,3.924,3.884c0.066,0.232,0.279,0.385,0.516,0.385 c0.049,0,0.098-0.006,0.148-0.019c0.283-0.08,0.451-0.373,0.369-0.655C18.076,8.883,16.289,7.115,14.043,6.485z M13.813,4.017 c-0.285-0.081-0.582,0.083-0.666,0.365c-0.078,0.281,0.086,0.574,0.371,0.654c3.199,0.897,5.746,3.419,6.648,6.579 c0.066,0.232,0.283,0.387,0.516,0.387c0.049,0,0.098-0.006,0.146-0.02c0.285-0.079,0.451-0.373,0.371-0.655 C20.195,7.817,17.365,5.016,13.813,4.017z"></path> </g> </g> </g> <g> <g> <path id="WhatsApp_8_" fill="#fff" d="M191.656-48.598c0,7.03-5.742,12.73-12.83,12.73c-2.248,0-4.361-0.575-6.199-1.584 l-7.104,2.257l2.316-6.831c-1.17-1.918-1.842-4.167-1.842-6.572c0-7.031,5.744-12.73,12.828-12.73 C185.914-61.328,191.656-55.63,191.656-48.598z M178.826-59.301c-5.945,0-10.785,4.801-10.785,10.703 c0,2.341,0.764,4.51,2.055,6.275l-1.348,3.974l4.145-1.317c1.705,1.118,3.744,1.771,5.936,1.771 c5.945,0,10.785-4.801,10.785-10.702C189.613-54.5,184.775-59.301,178.826-59.301z M185.305-45.666 c-0.078-0.13-0.289-0.209-0.602-0.365c-0.316-0.156-1.861-0.911-2.15-1.015c-0.289-0.103-0.498-0.157-0.707,0.156 s-0.813,1.015-0.996,1.224c-0.182,0.208-0.365,0.234-0.68,0.078c-0.314-0.156-1.328-0.486-2.529-1.548 c-0.936-0.827-1.566-1.848-1.75-2.161c-0.184-0.311-0.02-0.48,0.139-0.636c0.141-0.14,0.314-0.365,0.471-0.546 c0.158-0.183,0.211-0.312,0.314-0.521c0.105-0.208,0.053-0.39-0.027-0.547c-0.076-0.156-0.707-1.69-0.969-2.315 c-0.262-0.625-0.523-0.521-0.707-0.521c-0.184,0-0.393-0.026-0.604-0.026c-0.209,0-0.551,0.079-0.838,0.391 c-0.289,0.313-1.1,1.067-1.1,2.602c0,1.536,1.125,3.019,1.285,3.227c0.156,0.208,2.174,3.461,5.371,4.71 c3.197,1.249,3.197,0.832,3.773,0.781c0.574-0.053,1.859-0.756,2.121-1.484C185.383-44.912,185.383-45.536,185.305-45.666z"></path> </g> </g> </svg> 