<?xml version="1.0" encoding="UTF-8"?> <!-- Generator: Adobe Illustrator 17.0.0, SVG Export Plug-In . SVG Version: 6.00 Build 0) --> <svg xmlns="http://www.w3.org/2000/svg" xmlns:xlink="http://www.w3.org/1999/xlink" id="Layer_1" x="0px" y="0px" width="26.133px" height="26.133px" viewBox="0 0 26.133 26.133" xml:space="preserve"> <g> <g> <path id="WhatsApp_8_" fill="#00f" d="M26.133,12.73c0,7.03-5.742,12.729-12.83,12.729c-2.248,0-4.361-0.575-6.199-1.583 L0,26.133l2.316-6.83c-1.17-1.918-1.842-4.167-1.842-6.572C0.475,5.699,6.219,0,13.303,0C20.391,0,26.133,5.699,26.133,12.73z M13.303,2.027c-5.945,0-10.785,4.801-10.785,10.703c0,2.341,0.764,4.51,2.055,6.275l-1.348,3.974l4.145-1.317 c1.705,1.118,3.744,1.771,5.935,1.771c5.945,0,10.785-4.801,10.785-10.702C24.09,6.829,19.252,2.027,13.303,2.027z M19.781,15.662 c-0.078-0.13-0.289-0.209-0.602-0.365c-0.316-0.156-1.861-0.911-2.15-1.015c-0.289-0.103-0.498-0.157-0.707,0.156 s-0.813,1.015-0.996,1.224c-0.182,0.208-0.365,0.234-0.68,0.078c-0.314-0.156-1.328-0.486-2.529-1.548 c-0.936-0.827-1.566-1.848-1.75-2.161c-0.184-0.311-0.019-0.481,0.139-0.636c0.141-0.14,0.314-0.365,0.471-0.546 c0.158-0.183,0.211-0.312,0.314-0.521c0.105-0.208,0.053-0.39-0.027-0.547c-0.076-0.156-0.707-1.69-0.969-2.315 c-0.262-0.625-0.524-0.521-0.707-0.521c-0.184,0-0.392-0.026-0.604-0.026c-0.209,0-0.551,0.079-0.838,0.391 c-0.289,0.313-1.1,1.067-1.1,2.602c0,1.536,1.125,3.019,1.285,3.227c0.156,0.208,2.174,3.461,5.371,4.71 c3.197,1.249,3.197,0.832,3.773,0.781c0.574-0.053,1.859-0.756,2.121-1.484C19.859,16.416,19.859,15.792,19.781,15.662z"></path> </g> </g> </svg> 